<?xml version="1.0" encoding="utf-8"?>
<!-- Generator: Adobe Illustrator 25.2.0, SVG Export Plug-In . SVG Version: 6.00 Build 0)  -->
<svg version="1.1" id="Layer_1" xmlns="http://www.w3.org/2000/svg" xmlns:xlink="http://www.w3.org/1999/xlink" x="0px" y="0px"
	 viewBox="0 0 100 100" style="enable-background:new 0 0 100 100;" xml:space="preserve">
<style type="text/css">
	.st0{fill:none;stroke:#141518;stroke-width:1.5;stroke-linecap:round;stroke-linejoin:round;}
	.st1{fill:#95BB7B;}
	.st2{fill:#FFFFFF;}
	.st3{fill:none;}
</style>
<g transform="translate(-1062.781 -428.704)">
	<path class="st0" d="M1103,505.6l19.8-14.5l-23.2,6c-0.6,0.1-1.1,0.3-1.6,0.5c-2.4,1.1-3.4,4-2.3,6.3c1.1,2.4,4,3.4,6.3,2.3l0,0
		C1102.4,506,1102.7,505.8,1103,505.6z"/>
	<path class="st0" d="M1064.4,498.9c2.1-20.9,20.8-36.2,41.7-34.1c18,1.8,32.2,16,34.1,34"/>
	<path class="st0" d="M1140.1,498.9L1140.1,498.9l21.2,0c-0.3-26.8-22.4-48.3-49.2-48c-26.6,0.3-47.9,22-48,48.5"/>
	<line class="st0" x1="1073.5" y1="477.7" x2="1070.7" y2="475.1"/>
	<line class="st0" x1="1082.6" y1="470.1" x2="1078.9" y2="464.6"/>
	<line class="st0" x1="1094.2" y1="465.5" x2="1091.5" y2="455.7"/>
	<line class="st0" x1="1108.5" y1="465.1" x2="1109.4" y2="451.2"/>
	<line class="st0" x1="1122.5" y1="470" x2="1130.8" y2="454.3"/>
	<line class="st0" x1="1133.5" y1="481" x2="1151.1" y2="469.5"/>
	<path class="st1" d="M1137.5,481.7c2.6,4.4,4.2,9.4,4.7,14.5h16.1c0,0-0.7-13.4-7.5-22.5L1137.5,481.7z"/>
	<path class="st1" d="M1125.5,469.1c3.3,2.4,6.2,5.2,8.6,8.5l12.7-8.5c0,0-6-8-14.6-11.5L1125.5,469.1z"/>
	<path class="st2" d="M1094.2,456.8l1.6,6.3c0,0,6.5-1.4,10.6-0.3l0.6-9.5C1102.6,453.8,1098.3,455,1094.2,456.8z"/>
	<path class="st2" d="M1090.2,458.6l1.7,5.6c-3,0.8-5.9,2-8.5,3.6l-2.1-3.1C1084,462.4,1087,460.3,1090.2,458.6z"/>
	<path class="st2" d="M1072.6,474.6l1,0.9c1.9-2.2,4.1-4.1,6.6-5.6l-1.8-2.5C1076.3,469.6,1074.4,472,1072.6,474.6z"/>
</g>
<rect class="st3" width="100" height="100"/>
</svg>
