<?xml version="1.0" encoding="utf-8"?>
<!-- Generator: Adobe Illustrator 25.2.0, SVG Export Plug-In . SVG Version: 6.00 Build 0)  -->
<svg version="1.1" id="Layer_1" xmlns="http://www.w3.org/2000/svg" xmlns:xlink="http://www.w3.org/1999/xlink" x="0px" y="0px"
	 viewBox="0 0 100 100" style="enable-background:new 0 0 100 100;" xml:space="preserve">
<style type="text/css">
	.st0{fill:#FBD586;}
	.st1{fill:none;stroke:#141518;stroke-width:1.5;stroke-linecap:round;stroke-linejoin:round;}
	.st2{fill:none;}
</style>
<g transform="translate(-870.214 -430.556)">
	<path class="st0" d="M936.9,472.5h21v38h-27.4c-10.2,0-18.5-8-18.5-17.8v-2.1c0-10,8.4-18.1,18.8-18.1"/>
	<path class="st1" d="M910.6,493.1c12.9,0,23.3-10,23.3-22.4v-2.6c0-12.2-10.3-22.1-23-22.1h-34v47.2h25.9"/>
	<path class="st1" d="M937.4,468h26.1v47.2h-34c-12.7,0-23-9.9-23-22.1v-2.6c0-12.4,10.4-22.4,23.3-22.4"/>
</g>
<rect y="0" class="st2" width="100" height="100"/>
</svg>
