<?xml version="1.0" encoding="utf-8"?>
<!-- Generator: Adobe Illustrator 25.2.0, SVG Export Plug-In . SVG Version: 6.00 Build 0)  -->
<svg version="1.1" id="Layer_1" xmlns="http://www.w3.org/2000/svg" xmlns:xlink="http://www.w3.org/1999/xlink" x="0px" y="0px"
	 viewBox="0 0 100 100" style="enable-background:new 0 0 100 100;" xml:space="preserve">
<style type="text/css">
	.st0{fill:none;}
	.st1{fill:#FBD586;}
	.st2{fill:none;stroke:#141518;stroke-width:1.5;stroke-linecap:round;stroke-linejoin:round;}
</style>
<rect class="st0" width="100" height="100"/>
<g transform="translate(-280.25 -896.25)">
	<g transform="translate(211.672 484.488)">
		<path class="st1" d="M127.6,436.6c-12.9,0-23.3,10.4-23.3,23.3c0,12.9,10.4,23.3,23.3,23.3s23.3-10.4,23.3-23.3
			C150.9,447.1,140.5,436.6,127.6,436.6z M119.7,456.5c-1.4,0-2.6-1.1-2.6-2.6c0-1.4,1.1-2.6,2.6-2.6s2.6,1.1,2.6,2.6l0,0
			C122.3,455.3,121.1,456.5,119.7,456.5C119.7,456.5,119.7,456.5,119.7,456.5z M135.5,456.5c-1.4,0-2.6-1.1-2.6-2.6
			c0-1.4,1.1-2.6,2.6-2.6s2.6,1.1,2.6,2.6l0,0C138.1,455.3,136.9,456.5,135.5,456.5C135.5,456.5,135.5,456.5,135.5,456.5
			L135.5,456.5z"/>
		<path class="st2" d="M136.2,485.3v18.1c0,2.5-2,4.5-4.5,4.5H87.3c-2.5,0-4.5-2-4.5-4.5v-83.1c0-2.5,2-4.5,4.5-4.5l0,0h44.4
			c2.5,0,4.5,2,4.5,4.5l0,0v14.5"/>
		<circle class="st2" cx="109.5" cy="499.7" r="3.3"/>
		<line class="st2" x1="104.2" y1="420.2" x2="114.8" y2="420.2"/>
		<circle class="st2" cx="127.6" cy="460" r="26.7"/>
		<circle class="st2" cx="119.7" cy="453.9" r="2.6"/>
		<circle class="st2" cx="135.5" cy="453.9" r="2.6"/>
		<path class="st2" d="M121.1,468.5c0,0,5.4,4.9,12.2,0"/>
		<line class="st2" x1="85.4" y1="492.6" x2="132.1" y2="492.6"/>
		<line class="st2" x1="85.4" y1="424.3" x2="132.1" y2="424.3"/>
	</g>
</g>
</svg>
