<?xml version="1.0" encoding="utf-8"?>
<!-- Generator: Adobe Illustrator 25.2.0, SVG Export Plug-In . SVG Version: 6.00 Build 0)  -->
<svg version="1.1" id="Layer_1" xmlns="http://www.w3.org/2000/svg" xmlns:xlink="http://www.w3.org/1999/xlink" x="0px" y="0px"
	 viewBox="0 0 100 100" style="enable-background:new 0 0 100 100;" xml:space="preserve">
<style type="text/css">
	.st0{fill:#95BB7B;}
	.st1{fill:none;stroke:#141518;stroke-width:1.5;stroke-linecap:round;stroke-linejoin:round;}
	.st2{fill:none;}
</style>
<g transform="translate(-816.25 -971.25)">
	<g transform="translate(556.88 552.623)">
		<path class="st0" d="M299.4,475.6h-23.8c-1.7,0-3.2,1.4-3.2,3.2l0,0v23.8c0,1.7,1.4,3.2,3.2,3.2c0,0,0,0,0,0h23.8
			c1.7,0,3.2-1.4,3.2-3.2l0,0v-23.8C302.6,477,301.2,475.6,299.4,475.6z M287.5,495.9c-4.1,0-7.4-3.3-7.4-7.4c0-4.1,3.3-7.4,7.4-7.4
			c4.1,0,7.4,3.3,7.4,7.4l0,0C294.9,492.6,291.6,495.9,287.5,495.9C287.5,495.9,287.5,495.9,287.5,495.9L287.5,495.9z"/>
		<path class="st0" d="M343.1,475.6h-23.8c-1.7,0-3.2,1.4-3.2,3.2v23.8c0,1.7,1.4,3.2,3.2,3.2l0,0h23.8c1.7,0,3.2-1.4,3.2-3.2l0,0
			v-23.8C346.3,477,344.9,475.6,343.1,475.6z M331.2,495.9c-4.1,0-7.4-3.3-7.4-7.4c0-4.1,3.3-7.4,7.4-7.4c4.1,0,7.4,3.3,7.4,7.4l0,0
			C338.6,492.6,335.3,495.9,331.2,495.9z"/>
		<path class="st0" d="M299.4,431.5h-23.8c-1.7,0-3.2,1.4-3.2,3.2c0,0,0,0,0,0v23.8c0,1.7,1.4,3.2,3.2,3.2l0,0h23.8
			c1.7,0,3.2-1.4,3.2-3.2v-23.8C302.6,432.9,301.2,431.5,299.4,431.5L299.4,431.5z M287.5,451.7c-4.1,0-7.4-3.3-7.4-7.4
			c0-4.1,3.3-7.4,7.4-7.4c4.1,0,7.4,3.3,7.4,7.4l0,0C294.9,448.4,291.6,451.7,287.5,451.7C287.5,451.7,287.5,451.7,287.5,451.7
			L287.5,451.7z"/>
		<path class="st0" d="M343.1,431.5h-23.8c-1.7,0-3.2,1.4-3.2,3.2l0,0v23.8c0,1.7,1.4,3.2,3.2,3.2h23.8c1.7,0,3.2-1.4,3.2-3.2v-23.8
			C346.3,432.9,344.9,431.5,343.1,431.5L343.1,431.5z M331.2,451.7c-4.1,0-7.4-3.3-7.4-7.4c0-4.1,3.3-7.4,7.4-7.4
			c4.1,0,7.4,3.3,7.4,7.4l0,0C338.6,448.4,335.3,451.7,331.2,451.7z"/>
		<path class="st1" d="M272.9,428h29.4c2.2,0,3.9,1.7,3.9,3.9v29.4c0,2.2-1.7,3.9-3.9,3.9h-29.4c-2.2,0-3.9-1.7-3.9-3.9v-29.4
			C269,429.7,270.7,428,272.9,428z"/>
		<path class="st1" d="M287.2,436.9L287.2,436.9c4.1-0.2,7.5,3,7.7,7l0,0c0.2,4.1-3,7.5-7,7.7l0,0c-4.1,0.2-7.5-3-7.7-7l0,0
			C280,440.6,283.1,437.1,287.2,436.9z"/>
		<line class="st1" x1="277" y1="457.3" x2="298.1" y2="457.3"/>
		<path class="st1" d="M316.5,428h29.4c2.2,0,3.9,1.7,3.9,3.9v29.4c0,2.2-1.7,3.9-3.9,3.9h-29.4c-2.2,0-3.9-1.7-3.9-3.9v-29.4
			C312.6,429.7,314.4,428,316.5,428z"/>
		<path class="st1" d="M331.2,436.9L331.2,436.9c4.1,0,7.4,3.3,7.4,7.4l0,0c0,4.1-3.3,7.4-7.4,7.4l0,0c-4.1,0-7.4-3.3-7.4-7.4l0,0
			C323.8,440.2,327.1,436.9,331.2,436.9z"/>
		<line class="st1" x1="320.7" y1="457.3" x2="341.7" y2="457.3"/>
		<path class="st1" d="M272.9,472.1h29.4c2.2,0,3.9,1.7,3.9,3.9v29.4c0,2.2-1.7,3.9-3.9,3.9h-29.4c-2.2,0-3.9-1.7-3.9-3.9V476
			C269,473.9,270.7,472.1,272.9,472.1z"/>
		<path class="st1" d="M287.5,481.1L287.5,481.1c4.1,0,7.4,3.3,7.4,7.4l0,0c0,4.1-3.3,7.4-7.4,7.4l0,0c-4.1,0-7.4-3.3-7.4-7.4l0,0
			C280.1,484.4,283.4,481.1,287.5,481.1z"/>
		<line class="st1" x1="277" y1="501.4" x2="298.1" y2="501.4"/>
		<path class="st1" d="M316.5,472.1h29.4c2.2,0,3.9,1.7,3.9,3.9v29.4c0,2.2-1.7,3.9-3.9,3.9h-29.4c-2.2,0-3.9-1.7-3.9-3.9V476
			C312.6,473.9,314.4,472.1,316.5,472.1z"/>
		<path class="st1" d="M331.2,481.1L331.2,481.1c4.1,0,7.4,3.3,7.4,7.4l0,0c0,4.1-3.3,7.4-7.4,7.4l0,0c-4.1,0-7.4-3.3-7.4-7.4l0,0
			C323.8,484.4,327.1,481.1,331.2,481.1z"/>
		<line class="st1" x1="320.7" y1="501.4" x2="341.7" y2="501.4"/>
	</g>
</g>
<rect class="st2" width="100" height="100"/>
</svg>
