<?xml version="1.0" encoding="utf-8"?>
<!-- Generator: Adobe Illustrator 25.2.0, SVG Export Plug-In . SVG Version: 6.00 Build 0)  -->
<svg version="1.1" id="Layer_1" xmlns="http://www.w3.org/2000/svg" xmlns:xlink="http://www.w3.org/1999/xlink" x="0px" y="0px"
	 viewBox="0 0 100 100" style="enable-background:new 0 0 100 100;" xml:space="preserve">
<style type="text/css">
	.st0{fill:none;stroke:#141518;stroke-width:1.5;stroke-linecap:round;stroke-linejoin:round;}
	.st1{fill:#FBD586;}
	.st2{fill:none;}
</style>
<g transform="translate(-456.481 -410.173)">
	<path class="st0" d="M525.6,493.5l-15.3,13.1l-3.9-19.8"/>
	<path class="st0" d="M525.6,493.5l20.3-58.4l-19.1-6.7l-20.3,58.4l4.3-3l1.7,5.1l5.1-3.2l1.8,5.1l4.6-3.3L525.6,493.5z"/>
	<path class="st1" d="M519.2,481.2l-4.8,3l-1.6-5l-1,0.7l16.4-47.2l14,4.9L526,484.2l-0.4-1.7l-4.7,3.3L519.2,481.2z"/>
	<line class="st0" x1="509.4" y1="501.9" x2="513.8" y2="503.4"/>
	<path class="st0" d="M538.5,415l6.4,2.2c3.5,1.2,5.4,5.1,4.2,8.6l0,0l-3.2,9.2l0,0l-19.1-6.7l0,0l3.2-9.3
		C531.2,415.7,535,413.8,538.5,415C538.5,415,538.5,415,538.5,415z"/>
	<line class="st0" x1="524.4" y1="435.1" x2="543.6" y2="441.8"/>
	<line class="st0" x1="527.5" y1="442" x2="514" y2="480.7"/>
	<line class="st0" x1="532.2" y1="443.6" x2="518.8" y2="482.3"/>
	<line class="st0" x1="537" y1="445.3" x2="523.5" y2="484"/>
	<path class="st0" d="M461.7,475.6c3-2.2,17.4-12.4,20.1-5.7c1.7,4.2-2.5,10.7-4.3,14.3c-1.6,3.3-4.2,8.8-3.8,12.6
		c0.7,6.2,13.9-0.3,16.6-1.1c4-1.2,4.9,1.2,5,4.7c0.1,1.4-0.1,3.1,0.5,4.5c1.9,4.4,11.2,2.5,14.6,1.7"/>
</g>
<rect class="st2" width="100" height="100"/>
</svg>
