<?xml version="1.0" encoding="utf-8"?>
<!-- Generator: Adobe Illustrator 25.2.0, SVG Export Plug-In . SVG Version: 6.00 Build 0)  -->
<svg version="1.1" id="Layer_1" xmlns="http://www.w3.org/2000/svg" xmlns:xlink="http://www.w3.org/1999/xlink" x="0px" y="0px"
	 viewBox="0 0 100 100" style="enable-background:new 0 0 100 100;" xml:space="preserve">
<style type="text/css">
	.st0{fill:#FBD586;}
	.st1{fill:#141518;}
	.st2{fill:none;}
</style>
<g transform="translate(-132.604 -12.514)">
	<path class="st0" d="M182.4,27c-19.7,0-35.6,16-35.6,35.6s16,35.6,35.6,35.6s35.6-16,35.6-35.6c0,0,0,0,0,0
		C218.1,43,202.1,27,182.4,27z M170.4,57.4c-2.2,0-3.9-1.7-3.9-3.9s1.7-3.9,3.9-3.9s3.9,1.7,3.9,3.9S172.5,57.4,170.4,57.4
		L170.4,57.4z M194.5,57.4c-2.2,0-3.9-1.7-3.9-3.9s1.7-3.9,3.9-3.9s3.9,1.7,3.9,3.9S196.7,57.4,194.5,57.4L194.5,57.4z"/>
	<path class="st1" d="M182.6,104.3c-23,0-41.8-18.7-41.8-41.8c0-23,18.7-41.8,41.8-41.8c23,0,41.8,18.7,41.8,41.8
		C224.4,85.5,205.6,104.3,182.6,104.3z M182.6,22.3c-22.2,0-40.2,18.1-40.2,40.2c0,22.2,18.1,40.2,40.2,40.2
		c22.2,0,40.2-18.1,40.2-40.2C222.9,40.3,204.8,22.3,182.6,22.3z"/>
	<path class="st1" d="M170.4,58.1c-2.6,0-4.7-2.1-4.7-4.7s2.1-4.7,4.7-4.7s4.7,2.1,4.7,4.7S172.9,58.1,170.4,58.1z M170.4,50.3
		c-1.7,0-3.2,1.4-3.2,3.2s1.4,3.2,3.2,3.2s3.2-1.4,3.2-3.2S172.1,50.3,170.4,50.3z"/>
	<path class="st1" d="M194.5,58.1c-2.6,0-4.7-2.1-4.7-4.7s2.1-4.7,4.7-4.7s4.7,2.1,4.7,4.7S197.1,58.1,194.5,58.1z M194.5,50.3
		c-1.7,0-3.2,1.4-3.2,3.2s1.4,3.2,3.2,3.2s3.2-1.4,3.2-3.2S196.3,50.3,194.5,50.3z"/>
	<path class="st1" d="M181.7,79.7c-5.8,0-9.7-3.5-9.8-3.5c-0.3-0.3-0.3-0.8-0.1-1.1c0.3-0.3,0.8-0.3,1.1-0.1c0.3,0.3,8,7,17.8-0.1
		c0.3-0.2,0.8-0.2,1,0.2c0.2,0.3,0.2,0.8-0.2,1C188,78.9,184.6,79.7,181.7,79.7z"/>
</g>
<rect class="st2" width="100" height="100"/>
</svg>
