<?xml version="1.0" encoding="utf-8"?>
<!-- Generator: Adobe Illustrator 25.2.0, SVG Export Plug-In . SVG Version: 6.00 Build 0)  -->
<svg version="1.1" id="Layer_1" xmlns="http://www.w3.org/2000/svg" xmlns:xlink="http://www.w3.org/1999/xlink" x="0px" y="0px"
	 viewBox="0 0 100 100" style="enable-background:new 0 0 100 100;" xml:space="preserve">
<style type="text/css">
	.st0{fill:#141518;}
	.st1{fill:#95BB7B;}
	.st2{enable-background:new    ;}
	.st3{fill:none;}
</style>
<g transform="translate(126.585 -22.114)">
	<path class="st0" d="M-27.3,102.3h-88c-0.4,0-0.7-0.3-0.7-0.7V53.2c0-0.4,0.3-0.7,0.7-0.7h88c0.4,0,0.7,0.3,0.7,0.7v48.3
		C-26.6,101.9-26.9,102.3-27.3,102.3z M-114.6,100.8H-28V54h-86.6V100.8z"/>
	<path class="st0" d="M-115.3,96.6h-5.3c-0.4,0-0.7-0.3-0.7-0.7V47.6c0-0.4,0.3-0.7,0.7-0.7h88c0.4,0,0.7,0.3,0.7,0.7v5.6
		c0,0.4-0.3,0.7-0.7,0.7c-0.4,0-0.7-0.3-0.7-0.7v-4.9h-86.6v46.9h4.6c0.4,0,0.7,0.3,0.7,0.7C-114.6,96.3-114.9,96.6-115.3,96.6z"/>
	<path class="st0" d="M-120.6,91.7h-5.3c-0.4,0-0.7-0.3-0.7-0.7V42.7c0-0.4,0.3-0.7,0.7-0.7h88c0.4,0,0.7,0.3,0.7,0.7v4.9
		c0,0.4-0.3,0.7-0.7,0.7c-0.4,0-0.7-0.3-0.7-0.7v-4.2h-86.6v46.9h4.6c0.4,0,0.7,0.3,0.7,0.7C-119.9,91.4-120.2,91.7-120.6,91.7z"/>
	<path class="st1" d="M-32.5,57.3h-77.6c-0.8,0-1.4,0.6-1.4,1.4c0,0,0,0,0,0v37.8c0,0.8,0.6,1.4,1.4,1.4c0,0,0,0,0,0h77.6
		c0.8,0,1.4-0.6,1.4-1.4c0,0,0,0,0,0V58.7C-31.2,57.9-31.8,57.3-32.5,57.3C-32.5,57.3-32.5,57.3-32.5,57.3z M-111.1,97.4v-7.9
		c4.4,0,7.9,3.5,7.9,7.9c0,0,0,0,0,0H-111.1z M-111.1,65.7v-7.9h7.9C-103.2,62.1-106.7,65.7-111.1,65.7
		C-111.1,65.7-111.1,65.7-111.1,65.7L-111.1,65.7z M-71.3,91.1C-78.9,91.1-85,85-85,77.4c0,0,0,0,0,0c0-7.6,6.1-13.7,13.7-13.7
		c0,0,0,0,0,0c7.6,0,13.7,6.1,13.7,13.7c0,0,0,0,0,0C-57.6,85-63.7,91.1-71.3,91.1L-71.3,91.1z M-31.6,97.4h-7.9
		c0-4.4,3.5-7.9,7.9-7.9L-31.6,97.4z M-31.6,65.7c-4.4,0-7.9-3.5-7.9-7.9l0,0h7.9L-31.6,65.7z"/>
	<path class="st0" d="M-71.3,91.8c-7.9,0-14.4-6.5-14.4-14.4c0-7.9,6.5-14.4,14.4-14.4c7.9,0,14.4,6.5,14.4,14.4
		C-56.9,85.3-63.4,91.8-71.3,91.8z M-71.3,64.4c-7.2,0-13,5.8-13,13c0,7.2,5.8,13,13,13c7.2,0,13-5.8,13-13
		C-58.3,70.2-64.1,64.4-71.3,64.4z"/>
	<g transform="translate(-110.119 38.882)">
		<path class="st0" d="M-0.3,27.5H-1c-0.4,0-0.7-0.3-0.7-0.7v-7.9c0-0.4,0.3-0.7,0.7-0.7h7.9c0.4,0,0.7,0.3,0.7,0.7v0.7
			C7.6,23.9,4.1,27.5-0.3,27.5z M-0.3,26.1L-0.3,26.1c3.6,0,6.5-2.9,6.5-6.5v0h-6.5V26.1z"/>
		<path class="st0" d="M6.9,59.2H-1c-0.4,0-0.7-0.3-0.7-0.7v-7.9c0-0.4,0.3-0.7,0.7-0.7h0.7c4.4,0,7.9,3.5,7.9,7.9v0.7
			C7.6,58.9,7.3,59.2,6.9,59.2z M-0.3,57.8l6.5,0c0-3.6-2.9-6.5-6.5-6.5h0V57.8z"/>
		<path class="st0" d="M78.5,59.2h-7.9c-0.4,0-0.7-0.3-0.7-0.7v-0.7c0-4.4,3.5-7.9,7.9-7.9h0.7c0.4,0,0.7,0.3,0.7,0.7v7.9
			C79.2,58.9,78.9,59.2,78.5,59.2z M71.3,57.8h6.5l0-6.5C74.2,51.3,71.3,54.2,71.3,57.8L71.3,57.8z"/>
		<path class="st0" d="M78.5,27.5h-0.7c-4.4,0-7.9-3.5-7.9-7.9v-0.7c0-0.4,0.3-0.7,0.7-0.7h7.9c0.4,0,0.7,0.3,0.7,0.7v7.9
			C79.2,27.2,78.9,27.5,78.5,27.5z M71.3,19.6L71.3,19.6c0,3.6,2.9,6.5,6.5,6.5h0v-6.5H71.3z"/>
	</g>
	<g class="st2">
		<path class="st0" d="M-68.5,80.7c0-0.6-0.2-1-0.6-1.4s-1.1-0.7-2-1c-1.3-0.4-2.3-0.9-2.9-1.6s-0.9-1.5-0.9-2.4
			c0-1,0.3-1.8,0.9-2.5s1.4-1,2.4-1.1v-2h1.4v2c1,0.1,1.8,0.6,2.4,1.3c0.6,0.7,0.9,1.7,0.9,3h-1.7c0-0.9-0.2-1.6-0.6-2.1
			c-0.4-0.5-1-0.8-1.7-0.8c-0.7,0-1.3,0.2-1.7,0.6c-0.4,0.4-0.6,0.9-0.6,1.6c0,0.6,0.2,1.1,0.6,1.5s1.1,0.7,2,1s1.7,0.6,2.2,1
			c0.5,0.4,0.9,0.8,1.2,1.3s0.4,1.1,0.4,1.7c0,1-0.3,1.9-0.9,2.5s-1.5,1-2.6,1.1V86h-1.4v-1.8c-1.1-0.1-2-0.5-2.7-1.2s-1-1.7-1-2.9
			h1.7c0,0.9,0.2,1.5,0.7,2c0.4,0.5,1.1,0.7,1.9,0.7c0.8,0,1.4-0.2,1.9-0.6C-68.8,81.9-68.5,81.3-68.5,80.7z"/>
	</g>
</g>
<rect x="0" class="st3" width="100" height="100"/>
</svg>
