<?xml version="1.0" encoding="utf-8"?>
<!-- Generator: Adobe Illustrator 25.2.0, SVG Export Plug-In . SVG Version: 6.00 Build 0)  -->
<svg version="1.1" id="Layer_1" xmlns="http://www.w3.org/2000/svg" xmlns:xlink="http://www.w3.org/1999/xlink" x="0px" y="0px"
	 viewBox="0 0 100 100" style="enable-background:new 0 0 100 100;" xml:space="preserve">
<style type="text/css">
	.st0{fill:#141518;}
	.st1{fill:#FBD586;}
	.st2{fill:none;}
</style>
<g transform="translate(-15.006 -4.052)">
	<path class="st0" d="M95.9,15.2H34.1c-1.9,0-3.4-1.5-3.4-3.4v-0.3c0-1.9,1.5-3.4,3.4-3.4h61.8c1.9,0,3.4,1.5,3.4,3.4v0.3
		C99.3,13.7,97.8,15.2,95.9,15.2z M34.1,9.6c-1.1,0-1.9,0.9-1.9,1.9v0.3c0,1.1,0.9,1.9,1.9,1.9h61.8c1.1,0,1.9-0.9,1.9-1.9v-0.3
		c0-1.1-0.9-1.9-1.9-1.9H34.1z"/>
	<path class="st0" d="M95.9,100H34.1c-1.9,0-3.4-1.5-3.4-3.4v-0.3c0-1.9,1.5-3.4,3.4-3.4h61.8c1.9,0,3.4,1.5,3.4,3.4v0.3
		C99.3,98.5,97.8,100,95.9,100z M34.1,94.4c-1.1,0-1.9,0.9-1.9,1.9v0.3c0,1.1,0.9,1.9,1.9,1.9h61.8c1.1,0,1.9-0.9,1.9-1.9v-0.3
		c0-1.1-0.9-1.9-1.9-1.9H34.1z"/>
	<path class="st0" d="M40.3,94.2c-0.4,0-0.7-0.3-0.7-0.6c-1.3-9.5,1-18.4,6.6-25c2.4-2.7,5.2-5,8.2-6.9c2.3-1.5,3.7-4.1,3.8-6.9
		c0-4.9-2.3-6.6-5.7-9.1c-0.4-0.3-0.7-0.5-1.1-0.8c-1.9-1.4-3.6-3-5.1-4.9c-2.6-3.3-4.5-7.1-5.7-11.2c-1.4-4.6-1.9-9.4-1.6-14.3
		c0-0.4,0.4-0.7,0.8-0.7c0.4,0,0.7,0.4,0.7,0.8c-0.3,4.6,0.2,9.3,1.6,13.7c1.1,3.9,2.9,7.5,5.4,10.7c1.4,1.7,3,3.3,4.8,4.6
		c0.4,0.3,0.7,0.5,1.1,0.8c3.5,2.6,6.3,4.6,6.3,10.3c-0.1,3.3-1.7,6.3-4.5,8.1c-2.9,1.8-5.6,4.1-7.9,6.6c-5.3,6.3-7.5,14.7-6.3,23.8
		c0.1,0.4-0.2,0.8-0.6,0.8C40.4,94.2,40.4,94.2,40.3,94.2z"/>
	<path class="st0" d="M90.8,94.3c0,0-0.1,0-0.1,0c-0.4-0.1-0.7-0.4-0.6-0.8c1.3-9.1-1-17.6-6.3-23.9c-2.3-2.5-5-4.8-7.9-6.6
		c-2.8-1.8-4.4-4.8-4.5-8.1c0-5.7,2.8-7.7,6.3-10.3c0.4-0.3,0.7-0.5,1.1-0.8c1.8-1.3,3.4-2.9,4.8-4.6c2.5-3.2,4.3-6.8,5.4-10.7
		c1.3-4.5,1.9-9.1,1.6-13.7c0-0.4,0.3-0.8,0.7-0.8c0.4,0,0.8,0.3,0.8,0.7c0.3,4.8-0.2,9.6-1.6,14.3c-1.1,4.1-3.1,7.8-5.7,11.2
		c-1.5,1.8-3.2,3.5-5.1,4.9c-0.4,0.3-0.8,0.6-1.1,0.8c-3.4,2.5-5.7,4.1-5.7,9.1c0,2.8,1.5,5.3,3.8,6.9c3,1.9,5.8,4.2,8.2,6.9
		c5.6,6.6,8,15.5,6.6,25C91.5,94,91.1,94.3,90.8,94.3z"/>
	<path class="st1" d="M86,29.3c0-0.2,0-0.3-0.2-0.4c-0.1,0-0.1,0-0.2,0c-4.7,1.8-10.2,0.8-14.8-0.4c-6.1-1.6-12.6-1.3-18.9-0.8
		c-2.2,0.1-4.3,0.4-6.5,1c-0.2,0-0.3,0.2-0.2,0.4c1.7,5.9,5.8,10.8,11.4,13.5c6.5,3.1,7.8,9.3,8.4,11.3c0,0.1,0.2,0.2,0.3,0.2
		c0.1,0,0.1-0.1,0.2-0.2c1.5-4.8,4.8-8.9,9.3-11.3C80.1,39.8,84.2,35,86,29.3z"/>
	<path class="st1" d="M78.4,69.8c-7.1-5.6-11.5-9.4-12.7-11.2c-0.2-0.3-0.5-0.3-0.8-0.2c-0.1,0-0.1,0.1-0.2,0.2
		c-1.2,1.8-5.2,6.1-12.7,11.2c-7.6,5.1-8.3,17.7-8.4,20.1c0,0.2,0.2,0.4,0.4,0.4c0,0,0,0,0,0h42.3c0.2,0,0.4-0.2,0.4-0.4
		c0,0,0,0,0,0C86.6,87.7,85.6,75.5,78.4,69.8z"/>
	<path class="st0" d="M76.7,35.7c-0.2,0-0.4-0.1-0.6-0.3c-0.3-0.3-0.2-0.8,0.1-1.1c4.1-3.4,6.4-8.5,6.4-13.8c0-0.4,0.3-0.8,0.7-0.8
		c0.4,0,0.8,0.3,0.8,0.7c0,5.8-2.5,11.3-6.9,15C77,35.6,76.9,35.7,76.7,35.7z"/>
</g>
<rect class="st2" width="100" height="100"/>
</svg>
