<?xml version="1.0" encoding="utf-8"?>
<!-- Generator: Adobe Illustrator 25.2.3, SVG Export Plug-In . SVG Version: 6.00 Build 0)  -->
<svg version="1.1" xmlns="http://www.w3.org/2000/svg" xmlns:xlink="http://www.w3.org/1999/xlink" x="0px" y="0px"
	 viewBox="0 0 32 32" style="enable-background:new 0 0 32 32;" xml:space="preserve">
<style type="text/css">
	.st0{fill:#EAEDF4;}
	.st1{fill:#184D47;}
	.st2{fill:#95BB7B;}
	.st3{fill:#C54756;}
	.st4{fill:#FFFFFF;}
	.st5{fill:#B5B5B5;stroke:#000000;stroke-width:1.1359;stroke-linecap:round;stroke-linejoin:round;stroke-miterlimit:10;}
	.st6{fill:none;stroke:#000000;stroke-width:1.1359;stroke-linecap:round;stroke-linejoin:round;stroke-miterlimit:10;}
	.st7{fill:#DDC39E;}
	.st8{fill:#205B52;}
	.st9{fill:#FBD586;}
	.st10{fill:#F9E9CD;}
	.st11{fill:none;stroke:#141518;stroke-width:1.2449;stroke-linecap:round;stroke-linejoin:round;stroke-miterlimit:10;}
	.st12{fill:#C3E0AA;}
	.st13{fill:#E2B360;}
	.st14{fill:#E2E2E2;stroke:#000000;stroke-width:1.1359;stroke-linecap:round;stroke-linejoin:round;stroke-miterlimit:10;}
	.st15{fill:none;stroke:#FFFFFF;stroke-width:0.793;stroke-linecap:round;stroke-linejoin:round;stroke-miterlimit:10;}
	.st16{fill:none;stroke:#FFFFFF;stroke-width:0.7691;stroke-linecap:round;stroke-linejoin:round;stroke-miterlimit:10;}
	.st17{fill:#E2E2E2;}
	.st18{fill:#B5B5B5;}
	.st19{fill:#E2E2E2;stroke:#141518;stroke-width:1.1511;stroke-linecap:round;stroke-linejoin:round;stroke-miterlimit:10;}
	.st20{fill:#141518;stroke:#000000;stroke-miterlimit:10;}
	.st21{fill:#51442E;}
	.st22{fill:#FBD586;stroke:#000000;stroke-width:1.1359;stroke-linecap:round;stroke-linejoin:round;stroke-miterlimit:10;}
	.st23{fill:#95BB7B;stroke:#000000;stroke-width:1.1359;stroke-miterlimit:10;}
	.st24{fill:#EAEAEA;stroke:#000000;stroke-width:1.1359;stroke-miterlimit:10;}
	.st25{fill:none;stroke:#141518;stroke-width:1.1359;stroke-linecap:round;stroke-linejoin:round;stroke-miterlimit:10;}
	.st26{fill:#184D47;stroke:#000000;stroke-width:1.1359;stroke-linecap:round;stroke-linejoin:round;stroke-miterlimit:10;}
	.st27{fill:#933449;}
	.st28{fill:#EAEAEA;stroke:#000000;stroke-width:1.1359;stroke-linecap:round;stroke-linejoin:round;stroke-miterlimit:10;}
	.st29{fill:#F7DDAD;}
	.st30{fill:#B7DB97;stroke:#000000;stroke-width:1.1359;stroke-linecap:round;stroke-linejoin:round;stroke-miterlimit:10;}
	.st31{fill:#C54756;stroke:#000000;stroke-width:1.1359;stroke-linecap:round;stroke-linejoin:round;stroke-miterlimit:10;}
	.st32{stroke:#000000;stroke-miterlimit:10;}
	.st33{fill:#E56782;}
	.st34{fill:#FFFFFF;stroke:#000000;stroke-width:1.1359;stroke-linecap:round;stroke-linejoin:round;stroke-miterlimit:10;}
	.st35{fill:none;}
	.st36{fill:none;stroke:#FFFFFF;stroke-width:1.1064;stroke-linecap:round;stroke-linejoin:round;stroke-miterlimit:10;}
</style>
<g id="Layer_2">
</g>
<g id="Layer_1">
	<path class="st9" d="M23.93,32H8.07C3.61,32,0,28.39,0,23.93V8.07C0,3.61,3.61,0,8.07,0h15.86C28.39,0,32,3.61,32,8.07v15.86
		C32,28.39,28.39,32,23.93,32z"/>
	<path class="st32" d="M21.56,8.54c-2.46,0-4.65,1.58-5.56,3.97c-0.91-2.39-3.09-3.97-5.56-3.97c-3.3,0-5.99,2.84-5.99,6.33v8.16
		c0,0.24,0.19,0.43,0.43,0.43s0.43-0.19,0.43-0.43v-8.16c0-3.01,2.3-5.46,5.12-5.46s5.12,2.45,5.12,5.46v8.16
		c0,0.24,0.19,0.43,0.43,0.43c0.24,0,0.43-0.19,0.43-0.43v-8.16c0-3.01,2.3-5.46,5.12-5.46s5.12,2.45,5.12,5.46v8.16
		c0,0.24,0.19,0.43,0.43,0.43c0.24,0,0.43-0.19,0.43-0.43v-8.16C27.55,11.38,24.86,8.54,21.56,8.54z"/>
</g>
</svg>
