<svg id="Layer_1" data-name="Layer 1" xmlns="http://www.w3.org/2000/svg" viewBox="0 0 203.9 53.51"><defs><style>.cls-1{fill:#231f20;}</style></defs><path class="cls-1" d="M198.82.55a1.5,1.5,0,0,0-1.5,1.5V12.6c0,2.76-1.77,5-3.94,5h-1.1c-2.17,0-3.94-2.25-3.94-5V2.05a1.5,1.5,0,0,0-3,0V12.6c0,4,2.6,7.39,6,7.93v9.84c0,10.45-8,18.94-17.78,18.94s-17.78-8.49-17.78-18.94V2.05a1.5,1.5,0,0,0-3,0V30.37c0,12.1,9.33,21.94,20.78,21.94s20.78-9.84,20.78-21.94V20.53c3.39-.54,6-3.92,6-7.93V2.05A1.5,1.5,0,0,0,198.82.55Z"/><path class="cls-1" d="M192.83,14.1a1.5,1.5,0,0,0,1.5-1.5V2.05a1.5,1.5,0,0,0-3,0V12.6A1.5,1.5,0,0,0,192.83,14.1Z"/><path class="cls-1" d="M62.92,1.2A20.78,20.78,0,0,0,43.64,15,20.78,20.78,0,0,0,24.36,1.2C12.9,1.2,3.58,11,3.58,23.14V51.47a1.5,1.5,0,0,0,3,0V23.14c0-10.45,8-18.94,17.78-18.94s17.78,8.49,17.78,18.94V51.47a1.5,1.5,0,0,0,3,0V23.14c0-10.45,8-18.94,17.78-18.94s17.77,8.49,17.77,18.94V51.47a1.5,1.5,0,0,0,3,0V23.14C83.69,11,74.37,1.2,62.92,1.2Z"/><path class="cls-1" d="M118.23,1.2C106.78,1.2,97.46,11,97.46,23.14v10c-3.45.91-6,4.9-6,9.5,0,5.35,3.37,9.7,7.51,9.7s7.5-4.35,7.5-9.7c0-4.6-2.55-8.59-6-9.5v-10c0-10.45,8-18.94,17.77-18.94S136,12.69,136,23.14V51.47a1.5,1.5,0,0,0,3,0V23.14C139,11,129.69,1.2,118.23,1.2ZM99,49.31c-2.49,0-4.51-3-4.51-6.7s2-6.71,4.51-6.71,4.5,3,4.5,6.71S101.44,49.31,99,49.31Z"/></svg>