<?xml version="1.0" encoding="utf-8"?>
<!-- Generator: Adobe Illustrator 25.2.0, SVG Export Plug-In . SVG Version: 6.00 Build 0)  -->
<svg version="1.1" id="Layer_1" xmlns="http://www.w3.org/2000/svg" xmlns:xlink="http://www.w3.org/1999/xlink" x="0px" y="0px"
	 viewBox="0 0 100 100" style="enable-background:new 0 0 100 100;" xml:space="preserve">
<style type="text/css">
	.st0{fill:none;stroke:#141518;stroke-width:1.5;stroke-linecap:round;stroke-linejoin:round;}
	.st1{fill:#FBD586;}
	.st2{fill:none;}
</style>
<g transform="translate(-280.963 -627.107)">
	<path class="st0" d="M334,717.7c-22.4,0-40.6-18.2-40.6-40.6c0-22.4,18.2-40.6,40.6-40.6c11.8,0,23,5.1,30.7,14.1
		c3.7,4.4,3.1,10.9-1.3,14.6c-4.3,3.6-10.7,3.1-14.4-1.1c-7.2-8.3-19.7-9.2-28-2.1c-8.3,7.2-9.2,19.7-2.1,28
		c7.2,8.3,19.7,9.2,28,2.1c1.1-0.9,2-1.9,2.8-3c3.5-4.6,10-5.4,14.5-2s5.4,10,2,14.5l0,0C358.7,711.8,346.7,717.7,334,717.7z"/>
	<path class="st0" d="M351.2,664.5"/>
	<circle class="st0" cx="312.5" cy="655.9" r="10.2"/>
	<circle class="st1" cx="312.5" cy="698.3" r="7.4"/>
	<circle class="st1" cx="312.5" cy="655.9" r="7.4"/>
	<circle class="st0" cx="312.6" cy="698.3" r="10.3"/>
</g>
<rect class="st2" width="100.6" height="100.6"/>
</svg>
