<?xml version="1.0" encoding="utf-8"?>
<!-- Generator: Adobe Illustrator 25.2.0, SVG Export Plug-In . SVG Version: 6.00 Build 0)  -->
<svg version="1.1" id="Layer_1" xmlns="http://www.w3.org/2000/svg" xmlns:xlink="http://www.w3.org/1999/xlink" x="0px" y="0px"
	 viewBox="0 0 100 100" style="enable-background:new 0 0 100 100;" xml:space="preserve">
<style type="text/css">
	.st0{fill:#95BB7B;}
	.st1{fill:none;stroke:#141518;stroke-width:1.5;stroke-linecap:round;stroke-linejoin:round;}
	.st2{fill:none;}
</style>
<g transform="translate(-540.984 -607.853)">
	<path class="st0" d="M607.5,669.1c-3.3,1.8-6,4.6-7.8,7.9c-1.9,3.7-1.5,7.4-1.3,11.4c0.2,2.6,0.4,5.3-0.5,7.7
		c-0.1,0.3,0,0.6,0.3,0.7c0.1,0.1,0.3,0,0.4,0c0.6-0.3,1.2-0.7,1.5-0.9c4.7-2.9,10.1-7.1,11.7-12.6c1.1-4.2,1-8.7-0.3-12.8"/>
	<path class="st1" d="M573.4,686v-21.5c0-8.6-6.5-15.5-14.6-15.5l0,0c-8.1,0-14.6,6.9-14.6,15.5v29.8"/>
	<path class="st1" d="M573.4,665v21.5c0,8.6,6.5,15.5,14.6,15.5l0,0c1.8,0,3.6-0.3,5.2-1"/>
	<path class="st1" d="M599.4,699.6c-1.4,0.6-2.9,1-4.4,1.4c-0.7,0.2-1.5-0.3-1.7-1c-0.1-0.3,0-0.7,0.1-1c1.4-2.8,2.2-5.9,2.3-9.1
		c0.1-2.9-0.4-5.8-0.2-8.6c0.2-2.9,1.1-5.8,2.7-8.2c1.7-2.4,4.5-5.1,7.3-6"/>
	<path class="st1" d="M614.4,671.4c2,4.5,2,9.6,0.2,14.1c-1.9,4.5-5.1,8.4-9.2,11c-1.9,1.2-3.9,2.3-6,3.1"/>
	<path class="st1" d="M604.7,666l6.2-11.9l24.8-39.8c0.2-0.4,0.6-0.6,1-0.5c0.2,0,0.3,0.1,0.5,0.1c0.4,0.2,0.6,0.7,0.4,1.2
		L621.8,659l-5.9,12.3"/>
	<path class="st1" d="M611,654.1c0,0,5.3,4.7,10.8,4.9"/>
	<path class="st1" d="M604.7,666c0,0,4.4,5,11.1,5.4"/>
</g>
<rect class="st2" width="100" height="100"/>
</svg>
